<svg width="180" height="180" viewBox="0 0 296 291" fill="none" xmlns="http://www.w3.org/2000/svg">
<rect width="296" height="291" fill=""/>
<path d="M91.8 26H166.8C182.9 26 198.1 29 212.4 35.2C226.7 41.3 239.4 49.8 250.4 60.6C261.4 71.4 270 83.9 276.2 98.2C282.5 112.5 285.6 127.7 285.6 143.8C285.6 160.4 282.5 175.9 276.2 190.4C270 204.9 261.4 217.7 250.4 228.7C239.4 239.7 226.7 248.3 212.3 254.5C198.1 260.7 182.8 263.8 166.5 263.9V264H165.8H158H91.9C131.9 264 157 241.9 158 201.7H166.5H166.9C177.1 201.7 186.5 199.1 195.1 194C203.7 188.9 210.6 182.1 215.7 173.6C220.8 165.1 223.4 155.6 223.4 145.2C223.4 134.8 220.8 125.2 215.7 116.6C210.6 108 203.7 101.1 195.1 96C186.5 90.9 176.9 88.3 166.5 88.3H158C157 48.1 131.8 26 91.8 26Z" fill="#DF1E33"/>
<path d="M91.8 26H166.4V88.2H157.9C157 48.1 131.8 26 91.8 26Z" fill="#DF1E33"/>
<path fill-rule="evenodd" clip-rule="evenodd" d="M195.4 144.9C195.4 162.1 181.4 176.1 164.3 176.1H41.2C24 176.1 10 162.1 10 144.9C10 127.8 24 113.7 41.2 113.7H164.3C181.4 113.7 195.4 127.8 195.4 144.9Z" fill="#DF1E33"/>
<path fill-rule="evenodd" clip-rule="evenodd" d="M102.7 237.6C85.5 237.6 71.5 223.6 71.5 206.4V83.2996C71.5 66.1996 85.5 52.0996 102.7 52.0996C119.8 52.0996 133.8 66.1996 133.8 83.2996V206.4C133.8 223.6 119.8 237.6 102.7 237.6Z" fill="#DF1E33"/>
</svg>
