<svg width="24" height="25" viewBox="0 0 24 25" fill="none" xmlns="http://www.w3.org/2000/svg">
<g clip-path="url(#clip0_19132_20653)">
<path d="M16.4988 0.5C15.2193 0.5885 13.7238 1.4075 12.8523 2.474C12.0573 3.4415 11.4033 4.8785 11.6583 6.275C13.0563 6.3185 14.5008 5.48 15.3378 4.3955C16.1208 3.386 16.7133 1.958 16.4988 0.5Z" fill="black"/>
<path d="M21.5553 8.55192C20.3268 7.01143 18.6003 6.11743 16.9698 6.11743C14.8174 6.11743 13.9069 7.14793 12.4114 7.14793C10.8694 7.14793 9.69789 6.12043 7.8364 6.12043C6.00791 6.12043 4.06092 7.23792 2.82643 9.14891C1.09094 11.8399 1.38794 16.8994 4.20042 21.2088C5.20692 22.7508 6.55091 24.4848 8.3089 24.4998C9.87339 24.5148 10.3144 23.4963 12.4339 23.4858C14.5534 23.4738 14.9554 24.5133 16.5169 24.4968C18.2763 24.4833 19.6938 22.5618 20.7003 21.0198C21.4218 19.9144 21.6903 19.3579 22.2498 18.1099C18.1803 16.5604 17.5278 10.7734 21.5553 8.55192Z" fill="black"/>
</g>
<defs>
<clipPath id="clip0_19132_20653">
<rect width="24" height="24" fill="white" transform="translate(0 0.5)"/>
</clipPath>
</defs>
</svg>
