<svg width="24" height="25" viewBox="0 0 24 25" fill="none" xmlns="http://www.w3.org/2000/svg">
<g clip-path="url(#clip0_19132_20658)">
<path d="M5.31891 15.0035L4.4835 18.1222L1.43011 18.1868C0.517594 16.4943 0 14.5578 0 12.5C0 10.5101 0.483938 8.63362 1.34175 6.98132H1.34241L4.06078 7.4797L5.25159 10.1818C5.00236 10.9084 4.86652 11.6884 4.86652 12.5C4.86661 13.3809 5.02617 14.2249 5.31891 15.0035Z" fill="#FBBB00"/>
<path d="M23.7904 10.2583C23.9282 10.9842 24.0001 11.7339 24.0001 12.5001C24.0001 13.3592 23.9098 14.1972 23.7377 15.0056C23.1535 17.7563 21.6272 20.1583 19.5127 21.8581L19.512 21.8574L16.0881 21.6827L15.6035 18.6576C17.0065 17.8348 18.103 16.5471 18.6806 15.0056H12.2639V10.2583H23.7904Z" fill="#518EF8"/>
<path d="M19.5119 21.8574L19.5126 21.858C17.4561 23.511 14.8438 24.5 12.0001 24.5C7.43018 24.5 3.457 21.9457 1.43018 18.1868L5.31897 15.0035C6.33236 17.7081 8.94138 19.6334 12.0001 19.6334C13.3148 19.6334 14.5465 19.278 15.6033 18.6576L19.5119 21.8574Z" fill="#28B446"/>
<path d="M19.6596 3.26262L15.7721 6.44525C14.6783 5.76153 13.3853 5.36656 12 5.36656C8.87213 5.36656 6.21431 7.38017 5.25169 10.1818L1.34245 6.98131H1.3418C3.33895 3.13077 7.36223 0.5 12 0.5C14.9117 0.5 17.5814 1.53716 19.6596 3.26262Z" fill="#F14336"/>
</g>
<defs>
<clipPath id="clip0_19132_20658">
<rect width="24" height="24" fill="white" transform="translate(0 0.5)"/>
</clipPath>
</defs>
</svg>
